<svg viewBox="0 0 1024 1024" height="1024" width="1024" id="svg833" version="1.1" xmlns:xlink="http://www.w3.org/1999/xlink" xmlns="http://www.w3.org/2000/svg">
  <metadata id="metadata839">
    
      
        image/svg+xml
        
        
      
    
  </metadata>
  <defs id="defs837">
    <linearGradient id="linearGradient862">
      <stop id="stop858" offset="0" style="stop-color:#34242f;stop-opacity:1"></stop>
      <stop id="stop860" offset="1" style="stop-color:#3a2449;stop-opacity:1"></stop>
    </linearGradient>
    <radialGradient gradientTransform="translate(-4.4144922e-5,-5.695625e-5)" r="512" fy="512" fx="512" cy="512" cx="512" gradientUnits="userSpaceOnUse" id="radialGradient928" xlink:href="#linearGradient862"></radialGradient>
  </defs>
  
  <g style="display:inline" id="layer1">
    <circle r="512" cy="512" cx="512" id="path856" style="opacity:1;fill:url(#radialGradient928);fill-opacity:1;fill-rule:evenodd;stroke:none;stroke-width:1.51937;stroke-miterlimit:4;stroke-dasharray:none"></circle>
    <path id="path2769" d="m 697.74445,902.21035 -54.0831,90.27369 1.47241,-5.38948 1.47267,-5.38947 16.24765,-80.8421 16.24764,-80.84211 1.23096,-3.32081 1.23122,-3.3208 -12.94767,-20.93183 -12.94767,-20.93182 -3.06122,-5.78019 -3.0615,-5.78021 3.71335,-3.08178 3.71334,-3.08178 12.8089,20.22001 12.80889,20.21999 2.32826,-1.43897 2.32825,-1.43896 -1.86044,-3.18221 -1.86073,-3.18222 -9.84037,-14.82105 -9.84037,-14.82105 -1.78688,-3.06308 -1.78715,-3.06311 3.58292,-2.97348 3.58293,-2.97348 10.42216,15.13253 10.42216,15.13254 0.98008,-2.9406 0.98035,-2.94063 -9.62559,-12.60601 -9.62535,-12.60601 v -2.14821 -2.14819 l 3.10246,-1.91739 3.10245,-1.91739 7.46927,9.15165 7.469,9.15165 1.48023,-1.48022 1.48022,-1.48019 -7.96457,-9.6626 -7.96483,-9.66257 4.28867,-3.55931 4.28868,-3.55932 3.72278,5.09106 3.72278,5.09103 1.80762,-1.80782 1.8079,-1.80782 -4.64572,-5.13342 -4.64573,-5.13344 5.45765,-3.82265 5.45765,-3.82267 4.14478,-31.61948 4.14504,-31.6195 -0.15629,-28.83042 -0.1563,-28.8304 -1.89763,-10.77895 -1.89764,-10.77895 -7.41025,-0.85571 -7.41026,-0.85574 -15.37725,4.47035 -15.37751,4.47033 -13.73669,9.11802 -13.73696,9.11802 -15.99111,13.6888 -15.99084,13.68881 -10.28069,11.30488 -10.2807,11.30488 -11.69597,16.16842 -11.69623,16.16842 -10.13572,20.21052 -10.13598,20.21053 -5.03323,16.16842 -5.03323,16.16842 -1.62547,23.15194 -1.62518,23.15194 3.45114,14.57438 3.45142,14.57437 10.89886,22.90527 10.8986,22.90526 1.00217,-7.21333 1.00217,-7.21332 3.85024,-3.19542 3.85024,-3.19545 1.17922,3.67193 1.17921,3.67191 1.03263,8.4311 1.03289,8.4311 -5.42612,3.38866 -5.42613,3.38866 -1.02049,-3.06187 -1.02076,-3.06186 h -2.47027 -2.47 v 7.66655 7.66655 l -5.38947,4.87742 -5.38948,4.87742 v -9.40013 -9.4001 l -1.52926,-1.52911 -1.52899,-1.52907 -8.57627,2.16581 -8.576,2.16582 -7.71315,1.73614 -7.71288,1.73616 4.34446,4.80073 4.34472,4.8007 v 11.24045 11.24044 h -2.27705 -2.27705 l -4.69369,-5.18642 -4.6937,-5.18645 0.90759,-8.96092 0.9076,-8.96094 -2.66834,-1.34737 -2.66833,-1.34737 -1.38617,8.00264 -1.38618,8.00267 -5.43043,-6.90389 -5.4307,-6.90389 -32.28349,-1.67173 -32.28322,-1.67176 -18.86316,-5.2058 -18.86315,-5.20578 -10.88459,-4.0065 -10.88458,-4.00651 -20.10489,-10.11728 -20.10489,-10.11731 -16.16842,-10.85801 -16.16843,-10.85801 -12.12631,-9.92747 -12.12632,-9.92746 -10.77895,1.08191 -10.77894,1.08193 5.89878,-5.156 5.89904,-5.156 -3.05071,-3.05058 -3.05044,-3.0506 -6.59752,6.04429 -6.59726,6.0443 1.6411,-12.54217 1.64109,-12.54214 -4.43527,-3.62628 -4.43526,-3.62625 -15.7335,-21.42303 -15.73376,-21.42305 -14.52921,-28.42958 -14.52921,-28.42961 -6.84086,-21.55789 -6.84086,-21.5579 -2.83756,-15.98965 -2.83729,-15.98965 v -20.90394 -20.90396 l -2.98253,-1.84323 -2.98227,-1.84325 3.32773,-2.05662 3.32747,-2.0566 -1.85156,-2.99603 -1.85155,-2.99601 h -6.16017 -6.16017 l -4.87747,-5.38948 -4.87748,-5.38947 h 12.544 12.544 v -4.04211 -4.0421 h -12.544 -12.544 l 4.87748,-5.38947 4.87747,-5.38948 h 10.36126 10.36127 v -4.0421 -4.04211 h -5.80716 -5.80716 l 4.87748,-5.38947 4.87747,-5.38948 2.95074,-0.005 2.95073,-0.005 24.25264,-85.55191 24.25263,-85.55188 0.72865,56.02129 0.72866,56.02128 3.31345,-0.64536 3.31345,-0.64539 10.10526,2.00936 10.10526,2.00936 v 2.52127 2.52131 l -6.77995,1.70167 -6.78023,1.7017 -5.34339,-1.39736 -5.34367,-1.39738 -1.33147,2.15431 -1.33147,2.15428 7.39194,1.86904 7.39193,1.86904 -7.82282,6.25904 -7.82309,6.25904 1.59313,30.55939 1.59312,30.55937 6.60938,18.86316 6.60912,18.86316 5.41211,12.38956 5.41211,12.38957 15.09861,24.40908 15.09888,24.40912 11.77546,13.00633 11.77546,13.00634 32.00809,-30.06098 32.00781,-30.061 17.21533,-17.49819 17.21505,-17.49819 -1.50635,-4.94056 -1.50663,-4.94056 -7.97804,-19.02945 -7.97804,-19.02945 -5.87614,-22.73897 -5.87641,-22.73897 -2.60824,-45.81053 -2.60797,-45.81052 1.74539,-30.2356 1.74565,-30.23556 -10.65929,-12.88023 -10.65904,-12.8814 -19.33123,-24.9271 -19.33097,-24.92632 h 7.51536 7.51535 l 23.5043,31.49426 23.50404,31.49425 v -3.46613 -3.46611 l -20.089,-28.02812 -20.08899,-28.02815 h 7.31028 7.31055 l 12.10503,17.81432 12.10476,17.81431 1.87446,2.99186 1.87472,2.99186 1.74943,-1.74959 1.74969,-1.74958 -12.32761,-19.05659 -12.32762,-19.05659 h 6.65762 6.65762 l 6.08795,9.39822 6.08795,9.39822 2.02105,0.0334 2.02105,0.0334 v -1.48119 -1.48119 l -4.11136,-7.95039 -4.11109,-7.95039 h 6.61235 6.61234 l 5.53392,-14.79057 5.53391,-14.79061 9.40948,-18.6849 9.40948,-18.6849 15.14415,-22.44028 15.14389,-22.44032 17.93778,-18.44522 17.93779,-18.445236 41.76842,-31.082874 42.33077,-27.429207 10.66441,-6.931436 16.40631,-9.930017 -11.60737,17.064393 -8.42619,15.183515 -14.1647,31.510855 -21.01975,48.505257 5.03511,5.56315 5.03485,5.56315 v 13.04398 13.04396 l -5.38947,-4.87739 -5.38948,-4.87742 v -9.55287 -9.55287 l -2.63141,2.63146 -2.63141,2.63147 -10.84227,33.01834 -10.84228,33.01834 -4.0421,23.17897 -4.04211,23.17896 v 12.55454 12.55454 l 4.1561,15.9558 4.15582,15.95584 6.9764,9.14636 6.97614,9.1464 12.16431,7.71428 12.16404,7.71427 21.57838,8.24002 21.57837,8.24002 30.51413,7.92285 30.51412,7.92285 29.03229,2.84473 29.03201,2.84472 30.05818,2.01047 30.0579,2.01049 20.79933,-11.49996 20.79932,-11.49997 h 1.01646 1.01619 v 6.40991 6.40992 l -8.54798,3.54072 -8.54824,3.54073 3.00921,1.00308 3.00921,1.00307 5.53903,-2.96432 5.53877,-2.96432 v 2.78956 2.78954 h 16.16842 16.16842 v 8.27807 8.27807 l 8.50701,26.07983 8.50702,26.07982 4.03698,4.71579 4.03699,4.71579 h -3.11242 -3.11242 v 4.23497 4.23494 l 6.36227,-0.83373 6.36227,-0.83372 4.54414,3.77142 4.5444,3.77144 -3.49615,2.21766 -3.49588,2.21764 -6.06316,0.0412 -6.06316,0.0412 -0.0296,28.96842 -0.0296,28.96842 -1.6702,10.10526 -1.67047,10.10527 h 6.86916 6.86915 l 4.13561,1.58701 4.13562,1.58701 -3.21644,5.15029 -3.21644,5.15026 -8.78296,-1.6477 -8.78322,-1.64772 v 2.86073 2.86073 l 4.37059,2.44585 4.37033,2.44583 -5.55574,3.89149 -5.55601,3.89153 -6.66975,26.80708 -6.66975,26.80708 -16.67233,40.42105 -16.67261,40.42105 0.41283,11.89694 0.41284,11.89692 -3.93998,-3.26988 -3.93997,-3.2699 -1.52388,2.46544 -1.5236,2.46547 5.32588,4.81989 5.32588,4.81991 v 8.17071 8.17072 l -7.7886,-7.46197 -7.78859,-7.46195 -1.95557,3.16414 -1.95557,3.16413 9.74417,8.03196 9.74417,8.03196 v 9.80776 9.8078 l -13.47369,-13.2711 -13.47368,-13.27109 v 5.17457 5.17454 l 9.97861,10.2189 9.97834,10.21887 h -8.21329 -8.21356 l -4.81981,-5.32593 -4.82007,-5.32593 -2.47673,1.53077 -2.47674,1.53077 1.0523,3.12148 1.05256,3.12147 -3.60771,2.69474 -3.60745,2.69474 -54.0831,90.27368 z m -25.64258,16.16842 h 1.21398 l 23.04647,-37.66204 23.04647,-37.66205 19.31075,-34.42216 19.31049,-34.42217 18.15687,-36.37894 18.15686,-36.37895 9.6353,-25.89289 9.63558,-25.89289 6.75893,-23.32441 6.75921,-23.3244 4.07256,-23.5406 4.07229,-23.5406 1.70415,-26.94737 1.70442,-26.94737 -4.32209,-24.74792 -4.32209,-24.74793 -5.83572,-14.32576 -5.83599,-14.32576 -1.61765,-10.77894 -1.61765,-10.77895 -29.63025,0.90314 -29.62999,0.90317 -26.94736,3.9133 -26.94737,3.91329 -17.5158,4.05278 -17.51579,4.0528 -37.72632,12.50991 -37.72631,12.50992 -40.43696,20.38926 -40.43722,20.38927 -35.01541,23.37226 -35.01568,23.37226 -25.6,21.3182 -25.6,21.3182 -38.49243,37.18203 -38.49243,37.18206 1.02669,1.02654 1.02643,1.02656 32.07653,-15.18509 32.07626,-15.18508 40.94545,-18.32898 40.94518,-18.32898 46.63377,-17.57926 46.6335,-17.57925 26.94737,-6.68717 26.94737,-6.68718 18.86316,-2.71867 18.86315,-2.71866 24.3456,-1.81782 24.34561,-1.81784 3.13047,3.7719 3.13048,3.77193 -38.25503,4.75896 -38.25502,4.75896 -26.27692,5.29667 -26.27692,5.29664 -28.25701,9.25626 -28.25674,9.25623 -24.06158,11.95617 -24.06184,11.95617 -15.72029,10.24622 -15.72029,10.24623 -21.55789,21.75728 -21.5579,21.75725 -10.16266,17.46922 -10.16266,17.46926 -4.47677,14.14736 -4.47676,14.14737 -1.529,-10e-4 -1.52899,-10e-4 -14.59523,-5.54733 -14.59551,-5.54736 -18.87178,-12.20807 -18.87178,-12.2081 -15.24924,-15.25447 -15.24924,-15.25372 -16.84346,-22.90526 -16.84345,-22.90527 -11.7345,-24.25263 -11.73477,-24.25263 -6.03918,-17.51579 -6.03944,-17.51579 -1.55028,-61.97895 -1.55055,-61.97894 -14.17567,49.85263 -14.17539,49.85263 -3.96719,18.86316 -3.9672,18.86316 -0.0269,22.90526 -0.0269,22.90526 2.82543,17.51579 2.82543,17.51579 8.03113,24.02436 8.03112,24.02433 10.83311,21.48425 10.83312,21.48425 11.07159,16.47034 11.0716,16.47037 10.78703,13.04096 10.78676,13.04096 15.95581,15.25378 15.95581,15.25377 21.42477,15.3514 21.42478,15.35141 23.47196,11.83194 23.47197,11.83194 16.29615,5.63454 16.29642,5.63456 22.72849,4.60538 22.72849,4.60536 26.99615,-1.66837 26.99641,-1.66839 18.5794,-4.03259 18.57967,-4.03257 1.06685,-1.0669 1.06685,-1.0669 -5.29974,-9.09751 -5.29947,-9.09751 -5.96076,-17.51579 -5.96103,-17.51579 V 783.64193 755.3472 l 7.13432,-23.73382 7.13431,-23.73379 7.05213,-13.99252 7.05213,-13.99251 11.59114,-17.98462 11.59087,-17.98459 19.55059,-20.58159 19.55031,-20.58159 16.71357,-13.29936 16.71357,-13.29939 32.73755,-18.87127 32.73719,-18.87127 h 2.52685 2.52686 l 3.80362,7.41053 3.80389,7.41052 3.63951,16.16842 3.63978,16.16842 -0.31016,39.07369 -0.31044,39.07368 -4.27547,29.73748 -4.27574,29.73749 -5.32803,26.85198 -5.32803,26.852 -13.64049,64.67368 -13.64022,64.67369 -1.38725,6.06316 -1.38698,6.06315 h 1.21398 z m -213.53607,-79.01811 -20.66998,0.49712 -14.69413,-2.56442 -14.69386,-2.56444 -21.94324,-7.56354 -21.94352,-7.56353 -17.96662,-10.04752 -17.96661,-10.04754 -21.53257,-16.22539 -21.53283,-16.22536 -15.48423,-17.51503 -15.4845,-17.51504 -11.68034,-16.63412 -11.68006,-16.63413 -9.37176,-18.45544 -9.37176,-18.45545 -2.50017,-7.14455 -2.49991,-7.14456 7.38358,9.33702 7.38358,9.33702 15.5807,18.23736 15.5807,18.23733 18.25765,14.75143 18.25765,14.75144 16.01428,9.64342 16.01428,9.64341 20.21053,6.33848 20.21053,6.33848 13.68495,1.83948 13.68495,1.83948 4.40078,-22.33681 4.4005,-22.33684 8.83146,-17.59981 8.8312,-17.59984 21.58834,-21.72688 21.58835,-21.72691 19.20323,-11.39256 19.2035,-11.39259 21.21755,-8.90274 21.21782,-8.90274 7.79264,-1.9145 7.79264,-1.9145 -12.85955,14.29461 -12.85955,14.2946 -10.01499,14.82106 -10.01526,14.82105 -6.81014,12.28757 -6.80987,12.28759 -7.25396,21.01604 -7.2537,21.01607 -3.86102,21.93847 -3.86101,21.93847 0.0431,14.82105 0.0431,14.82106 3.95668,18.67727 3.95668,18.67728 -1.52306,1.52301 -1.52307,1.52298 z M 752.7311,700.10509 h -1.37216 l 1.78607,-10.57091 1.7858,-10.57092 1.95854,-31.87119 1.95826,-31.87119 -2.14717,-26.32701 -2.14716,-26.32702 -8.17826,-20.83088 -8.17826,-20.83088 -7.32941,-8.38055 -7.32942,-8.38052 -11.95439,-7.46486 -11.95466,-7.46485 -26.36423,1.8158 -26.36423,1.81582 -23.66032,3.84808 -23.66006,3.84809 -33.68422,9.25507 -33.68421,9.25507 -0.80518,-0.7771 -0.80546,-0.77714 26.40546,-13.5452 26.40517,-13.54521 30.98948,-12.53572 30.98947,-12.53576 35.03158,-9.02928 35.03158,-9.02928 21.5579,-2.81665 21.55789,-2.81664 14.11045,-1.33295 14.11019,-1.33298 4.04722,14.01602 4.04723,14.016 2.72681,14.51518 2.72654,14.51517 v 21.20782 21.20782 l -3.98417,26.25596 -3.98444,26.25595 -5.62338,20.21052 -5.62337,20.21053 -13.5098,34.3579 -13.50979,34.35789 z m -450.91949,-22.90526 2.69473,-1.66543 v -2.69474 -2.69473 l -2.69473,1.66542 -2.69474,1.66543 v 2.69474 2.69474 z m 93.79382,-125.91355 4.22993,-3.43382 6.90391,-6.35653 6.90392,-6.35654 20.21053,-16.33172 20.21052,-16.33172 19.36303,-12.67777 19.36277,-12.67777 26.44776,-13.51305 26.4475,-13.51303 26.5119,-9.86473 26.51163,-9.8647 39.50942,-9.67295 39.50916,-9.67295 2.26304,-2.02302 2.26277,-2.02302 -24.72906,-5.69373 -24.72934,-5.69377 -37.27063,-10.76854 -37.27064,-10.76857 -22.20975,-9.36686 -22.20948,-9.36687 -10.13491,-7.02332 -10.13464,-7.02332 -6.78588,-10.2545 -6.78616,-10.25447 -4.56138,-15.69008 -4.56111,-15.6901 1.4627,-28.40531 1.46244,-28.40527 4.20406,-17.51579 4.20432,-17.51579 7.88265,-22.90526 7.88291,-22.90527 9.58976,-24.512 9.59003,-24.51199 9.61725,-21.103755 5.2639,-12.31311 3.80939,-7.547917 4.16869,-9.194408 -33.04722,25.143728 -27.94496,20.920024 -16.10159,14.341978 -16.10159,14.34198 -16.70495,22.25831 -16.70521,22.25832 -11.2958,21.19992 -11.2958,21.19993 -9.171,25.34896 -9.17072,25.34898 -6.02571,28.29474 -6.02543,28.29473 -1.29644,43.11579 -1.29643,43.11579 4.47676,32.05096 4.47704,32.05096 7.76569,30.11829 7.76569,30.11832 4.53228,11.32773 4.53255,11.3277 z m 19.27949,-64.48656 -5.05424,3.62092 -1.68718,-7.66303 -1.68717,-7.66305 -1.17248,-3.71914 -1.17221,-3.71916 -3.99199,-26.57889 -3.99225,-26.57892 0.003,-38.41773 0.003,-38.41773 3.80254,-21.6056 3.80228,-21.60559 4.43472,-17.46809 4.43473,-17.46809 5.19788,-14.15478 5.19788,-14.15481 8.05888,-15.9647 8.05888,-15.96467 3.21293,-1.98575 3.21321,-1.98573 -1.96797,5.1282 -1.96796,5.12819 -3.86372,25.62967 -3.86344,25.62964 0.0323,14.82105 0.0323,14.82106 3.81144,17.98378 3.81143,17.98378 7.58488,15.70043 7.58461,15.70043 13.48338,13.47368 13.48312,13.47368 22.90526,11.08168 22.90526,11.08165 10.41759,3.37771 10.41731,3.37769 -19.84889,8.68444 -19.84916,8.68441 -17.51579,8.87248 -17.51579,8.8725 -27.84122,19.18372 -27.84148,19.18372 -5.05425,3.62095 z m 107.89511,427.53695 -5.38947,4.87742 v -13.47368 -13.47369 l 5.38947,-4.87742 5.38948,-4.87742 v 13.47369 13.47368 z m 48.47536,-49.85263 h -2.06498 l -1.84482,-9.83299 -1.84454,-9.83301 5.20731,-5.20739 5.20757,-5.20742 1.80683,11.29949 1.80682,11.29946 -3.10461,3.74092 -3.10488,3.74094 z m 17.96392,-16.77913 -4.01192,4.01192 -2.83837,-10.27953 -2.83837,-10.27953 2.94427,-3.54738 2.944,-3.5474 h 2.06498 2.06471 l 1.84131,9.81498 1.84132,9.81499 z m 13.54995,-13.54989 -3.93567,3.93571 -3.23853,-9.81291 -3.23854,-9.81288 3.26791,-3.93782 3.26818,-3.93782 h 2.06498 2.0647 l 1.84132,9.81499 1.84131,9.81498 z m 13.75744,-13.75758 -3.86452,3.86463 -3.17252,-6.96317 -3.17278,-6.9632 v -3.58535 -3.58535 l 3.79257,-3.14756 3.79257,-3.14756 3.24474,9.83148 3.24473,9.83148 z m 13.89487,-8.98867 -5.53742,1.44807 -2.62656,-7.19694 -2.62682,-7.19691 -1.10727,-3.17141 -1.10727,-3.17139 3.7252,-3.09164 3.72521,-3.09164 5.54631,10.87148 5.54603,10.87146 v 1.14044 1.14044 z m 16.28133,-3.51421 h -5.4245 l -5.75246,-11.84035 -5.75245,-11.84037 1.66076,-4.32805 1.66077,-4.32807 h 2.21804 2.21803 l 7.29816,14.88074 7.29816,14.88077 v 1.28765 1.28768 z m 17.97955,0 h -6.49781 l -9.74714,-18.54849 -9.74686,-18.54847 3.63574,-3.0174 3.63574,-3.01741 9.46284,15.50275 9.46283,15.50271 3.14611,6.06316 3.14637,6.06315 z m 199.4938,-247.91579 h -13.47368 l 4.87747,-5.38947 4.87748,-5.38947 h 13.47368 13.47369 l -4.87748,5.38947 -4.87747,5.38947 z m 18.86316,-18.86315 h -13.47368 l 4.87747,-5.38948 4.87748,-5.38947 h 13.47368 13.47368 l -4.87747,5.38947 -4.87747,5.38948 z m 9.75495,-18.86316 h -13.47368 l -4.87748,-5.38947 -4.87747,-5.38948 h 13.47368 13.47369 l 4.87747,5.38948 4.87747,5.38947 z m -18.35331,-18.44122 -12.44969,0.99016 -3.88527,-4.29315 -3.88527,-4.29315 1.80251,-1.80237 1.80224,-1.80238 h 9.91232 9.91205 l 4.62039,5.10537 4.6204,5.10537 z m -641.00139,-70.69011 -3.03858,-0.20507 -8.95299,-3.24274 -8.95327,-3.24274 4.91116,-4.28482 4.91089,-4.28482 4.0421,1.38264 4.04211,1.38265 6.35608,2.35247 6.35607,2.35251 -3.31749,3.99743 -3.31776,3.99745 -3.03832,-0.20507 z m 12.12632,-13.47369 -1.69122,-0.20507 -8.56441,-3.1634 -8.56468,-3.16341 3.2353,-4.39193 3.2353,-4.39197 10.11335,4.03367 10.11308,4.03368 -3.09275,3.72671 -3.09302,3.72669 -1.69095,-0.20507 z m 9.43158,-10.69304 -3.03859,-0.1191 -10.10526,-5.33477 -10.10526,-5.33475 v -5.32509 -5.3251 h 1.28781 1.28755 l 14.78413,7.25081 14.78414,7.25084 -2.9281,3.52811 -2.9281,3.52813 z m 16.45245,-12.5101 -3.32261,4.4436 -18.86316,-10.23569 -18.86316,-10.23569 -0.88657,-7.58035 -0.88657,-7.58037 18.40236,10.20241 18.40236,10.2024 4.66998,3.17007 4.66971,3.17006 z m 10.44264,-11.13044 -3.13559,4.2881 -23.50431,-13.73507 -23.5043,-13.73507 v -6.17125 -6.17127 l 2.02105,0.0302 2.02105,0.0302 24.61885,15.58806 24.61885,15.58805 z m 464.79415,2.20176 h -2.04018 l -1.79631,-1.7965 -1.79659,-1.79648 v -1.93266 -1.93267 l 25.75846,-16.48138 25.75845,-16.48137 h 1.18891 1.18892 v 6.39839 6.39835 l -23.1106,13.81217 -23.11087,13.81215 z m -455.82957,-10.12292 -1.52306,1.94073 -28.79273,-19.05748 -28.79299,-19.05748 v -6.49353 -6.49353 h 1.22206 1.22179 l 31.39881,21.89708 31.3988,21.89711 -2.3048,1.7132 -2.30508,1.71321 z m 464.50932,-10.96671 -19.37166,12.60872 -2.87393,-3.46292 -2.87394,-3.4629 18.20349,-13.3324 18.20321,-13.3324 14.14737,-10.18322 14.14737,-10.18322 -0.0323,7.64004 -0.0323,7.64003 -10.07185,6.72976 -10.07185,6.72975 -19.37165,12.60876 z m -453.90499,-1.36861 -3.69206,2.99122 -12.23626,-8.45598 -12.23653,-8.45595 -22.12137,-16.96321 -22.12163,-16.9632 v -6.61574 -6.61575 h 2.04558 2.04557 l 27.13897,22.23158 27.13896,22.23158 8.86515,6.81211 8.86541,6.81213 z m 423.53881,3.59508 h -2.8098 v -3.53795 -3.53794 l 7.41052,-6.80435 7.41053,-6.80437 28.96842,-21.90978 28.96842,-21.90974 v 6.34853 6.34853 l -18.18947,14.61657 -18.18948,14.61658 -15.37967,11.28696 -15.37967,11.28696 z m 16.9763,-30.86395 -27.37179,22.37987 -1.59663,-1.59655 -1.59663,-1.59656 v -3.48631 -3.48632 l 39.74737,-34.96997 39.74737,-34.96995 0.92321,7.24224 0.92295,7.24224 -11.70189,10.43073 -11.70217,10.43071 z m -433.59664,19.13403 -2.52632,0.73321 -28.29473,-22.94682 -28.29474,-22.94684 -10.34429,-10.23361 -10.34456,-10.23362 0.91298,-6.34316 0.91271,-6.34317 18.86316,15.88337 18.86316,15.88334 22.31915,20.11778 22.31943,20.11777 -0.92995,2.78927 -0.92969,2.78924 z m 12.91938,-8.86666 -2.0701,1.27938 -12.33947,-11.22562 -12.33947,-11.2256 -31.40096,-29.16403 -31.40096,-29.16404 v -8.10081 -8.10081 l 45.81053,43.85509 45.81052,43.85512 v 3.35597 3.35597 z m 404.65193,-16.42929 -19.14476,18.31283 -3.54897,-4.27627 -3.54896,-4.27625 43.9552,-42.28301 43.9552,-42.28301 3.66484,-2.15495 3.66457,-2.15496 v 7.67868 7.67868 l -24.92631,22.72272 -24.92632,22.7227 z m -395.31305,4.24749 -3.57646,2.96831 -38.81256,-40.72052 -38.81257,-40.72052 -4.99766,-6.35338 -4.99739,-6.35341 h 8.05511 8.05511 l 0.89842,2.5022 0.89816,2.5022 20.21053,21.23 20.21052,21.23003 14.83318,16.01514 14.83318,16.01517 3.38971,4.35825 3.38944,4.35825 z m 411.4141,-42.95755 -45.50117,46.8746 -3.28057,-3.9527 -3.2803,-3.95272 37.1844,-40.22716 37.18468,-40.22714 4.35253,-3.56315 4.35281,-3.56314 7.24453,0.86841 7.24453,0.8684 z m -401.10485,33.57073 -3.97959,1.52719 -27.45586,-31.55469 -27.45587,-31.55467 -9.53236,-10.10526 -9.53236,-10.10527 h 8.14484 8.14484 l 32.82324,38.93329 32.82298,38.93326 v 1.19949 1.19945 z m 345.48198,1.74415 h -2.1345 l -1.5104,-3.93645 -1.51067,-3.93644 19.14853,-23.23432 19.14853,-23.23432 12.60275,-14.59766 12.60274,-14.59766 h 7.89747 7.89773 l -13.11205,15.49474 -13.11205,15.49474 -4.94322,5.38947 -4.94323,5.38948 -17.94883,20.88421 -17.94857,20.88421 z m -10.11416,-11.31038 -2.13611,0.81591 -1.47349,-2.38395 -1.47321,-2.38395 21.6797,-29.42146 21.6797,-29.42144 3.52337,-4.92139 3.52336,-4.92143 7.04351,0.87932 7.0435,0.87929 -28.63697,35.03158 -28.63724,35.03158 z m -7.88884,-9.45963 -1.97578,2.13525 -2.90546,-3.50059 -2.9052,-3.5006 19.12024,-28.95045 19.12023,-28.95045 h 6.26554 6.26553 v 1.34287 1.34284 l -20.50452,28.97295 -20.50453,28.97292 z m -11.25349,-8.99813 -1.69095,0.12611 -2.65782,-3.36842 -2.65754,-3.36842 13.9555,-22.90526 13.95523,-22.90527 7.17824,-0.84714 7.17797,-0.84712 -16.7847,26.99477 -16.78471,26.9948 -1.69122,0.12611 z m -10.4351,-10.86831 -1.34737,-0.21019 -3.25416,-1.32109 -3.2539,-1.32107 9.90801,-20.02408 9.90828,-20.02407 h 6.3294 6.3294 l -11.63615,21.55522 -11.63614,21.55526 z m -11.29607,-10.56355 h -2.34684 l -1.66077,-4.32807 -1.66076,-4.32808 5.75245,-11.84035 5.75246,-11.84035 h 5.46061 5.46088 l -3.74325,8.7579 -3.74299,8.75789 -3.46247,7.41053 -3.46247,7.41053 z m -10.6054,-10.80636 -1.69122,0.0275 -2.64946,-3.36842 -2.6492,-3.36842 3.58077,-8.52812 3.58076,-8.52811 5.17471,1.35324 5.1747,1.35322 -4.41506,10.51588 -4.41505,10.51592 -1.69095,0.0275 z m -8.59837,-17.82323 -3.30941,7.74936 -3.54923,-4.27665 -3.54924,-4.27666 3.1876,-9.65871 3.18761,-9.65875 3.79257,3.14756 3.79257,3.14756 -0.12126,3.03845 -0.12126,3.03848 -3.30941,7.74936 z m -10.76197,-13.17292 -3.30725,9.55227 -4.33421,-4.33424 -4.33422,-4.33427 2.81816,-9.18272 2.81842,-9.18274 h 3.30159 3.30159 l 1.52145,3.96471 1.52145,3.96471 z m -16.52413,-4.66519 -0.63299,0.69021 -4.40589,-4.86848 -4.4059,-4.86847 2.8195,-10.21154 2.81951,-10.21155 4.92975,4.46144 4.93002,4.46143 -2.71064,9.92838 -2.71063,9.92838 z m -11.37879,-23.68733 -2.25873,11.42224 -4.79906,-5.30289 -4.79905,-5.30289 1.81652,-11.36058 1.81679,-11.36061 5.24126,5.24126 5.24127,5.24127 z m -16.63273,-8.60235 -2.17815,3.43212 -4.10274,-4.77949 -4.10274,-4.77946 1.22988,-11.6013 1.22988,-11.6013 5.09224,4.60843 5.09225,4.6084 -0.0404,8.34027 -0.0404,8.34023 -2.17816,3.4321 z m -16.1474,-14.49235 -2.2396,1.38413 -3.84862,-3.84868 -3.84862,-3.84865 0.95906,-12.05782 0.95905,-12.05779 5.12916,3.20327 5.12917,3.20326 v 11.31908 11.31908 z" style="fill:#e9e1d4;fill-opacity:1;stroke-width:2.69474"></path>
  </g>
  <g style="display:inline" id="g841">
    <path id="path1653" d="" style="opacity:1;fill:#e7ba59;fill-opacity:1;fill-rule:evenodd;stroke:none;stroke-width:0.392762;stroke-miterlimit:4;stroke-dasharray:none"></path>
    <path id="path1819" d="" style="opacity:1;fill:#e7ba59;fill-opacity:1;fill-rule:evenodd;stroke:none;stroke-width:0.785525;stroke-miterlimit:4;stroke-dasharray:none"></path>
    <path id="path1877" d="" style="opacity:1;fill:#e7ba59;fill-opacity:1;fill-rule:evenodd;stroke:none;stroke-width:0.55545;stroke-miterlimit:4;stroke-dasharray:none"></path>
    <path id="path2063" d="" style="opacity:1;fill:#e7ba59;fill-opacity:1;fill-rule:evenodd;stroke:none;stroke-width:0.55545;stroke-miterlimit:4;stroke-dasharray:none"></path>
    <path id="path2089" d="" style="opacity:1;fill:#e7ba59;fill-opacity:1;fill-rule:evenodd;stroke:none;stroke-width:0.277725;stroke-miterlimit:4;stroke-dasharray:none"></path>
    <path id="path2282" d="M 1.2029027,230.50639 1.0274038,0.55718956 203.1926,0.75746959 C 407.52443,0.95989622 462.51284,1.6720356 441.72132,3.8465877 435.98451,4.4465914 417.88831,7.9435997 401.50754,11.617717 311.49135,31.807861 228.72931,75.061662 163.87976,135.80878 86.263086,208.51536 35.019018,297.68416 11.879238,400.30194 8.2273978,416.49673 4.370775,436.65643 3.3089651,445.1013 1.6480583,458.31094 1.3538882,428.3368 1.2029027,230.50639 Z" style="opacity:1;fill:#000000;fill-opacity:0;fill-rule:evenodd;stroke:none;stroke-width:2.2218;stroke-miterlimit:4;stroke-dasharray:none"></path>
    <path id="path2284" d="M 1.2029027,230.50639 1.0274038,0.55718956 203.1926,0.75746959 C 407.52443,0.95989622 462.51284,1.6720356 441.72132,3.8465877 435.98451,4.4465914 417.88831,7.9435997 401.50754,11.617717 311.49135,31.807861 228.72931,75.061662 163.87976,135.80878 86.263086,208.51536 35.019018,297.68416 11.879238,400.30194 8.2273978,416.49673 4.370775,436.65643 3.3089651,445.1013 1.6480583,458.31094 1.3538882,428.3368 1.2029027,230.50639 Z" style="opacity:1;fill:#000000;fill-opacity:0;fill-rule:evenodd;stroke:none;stroke-width:2.2218;stroke-miterlimit:4;stroke-dasharray:none"></path>
    <path id="path2286" d="M 1.2029027,230.50639 1.0274038,0.55718956 203.1926,0.75746959 C 407.52443,0.95989622 462.51284,1.6720356 441.72132,3.8465877 435.98451,4.4465914 417.88831,7.9435997 401.50754,11.617717 311.49135,31.807861 228.72931,75.061662 163.87976,135.80878 86.263086,208.51536 35.019018,297.68416 11.879238,400.30194 8.2273978,416.49673 4.370775,436.65643 3.3089651,445.1013 1.6480583,458.31094 1.3538882,428.3368 1.2029027,230.50639 Z" style="opacity:1;fill:#000000;fill-opacity:0;fill-rule:evenodd;stroke:none;stroke-width:2.2218;stroke-miterlimit:4;stroke-dasharray:none"></path>
    <path id="path2288" d="M 1021.0892,453.52091 C 1019.6107,429.34068 1007.8399,377.65122 996.02651,343.4619 957.18614,231.05385 880.31581,136.28572 776.4619,72.775798 731.85923,45.499872 679.95263,24.846627 623.97392,12.101985 606.68207,8.1651603 587.92791,4.4520202 582.298,3.8505627 561.74238,1.6545533 615.79243,0.95261954 820.28998,0.75982375 L 1023.1863,0.56853743 V 235.27027 c 0,129.08595 -0.2469,234.70172 -0.5456,234.70172 -0.2987,-1e-5 -0.9957,-7.40299 -1.5489,-16.45108 z" style="opacity:1;fill:#000000;fill-opacity:0;fill-rule:evenodd;stroke:none;stroke-width:2.2218;stroke-miterlimit:4;stroke-dasharray:none"></path>
    <path id="path2290" d="m 580.8244,1020.4487 c 8.04275,-1.0697 27.78406,-4.9192 43.86958,-8.5546 173.57717,-39.22936 313.04426,-163.83302 371.32504,-331.75181 10.18718,-29.35131 21.76418,-77.22931 24.87608,-102.87723 1.661,-13.69022 1.9533,16.14062 2.1044,214.78204 l 0.1755,230.6804 -228.4869,-0.167 c -196.97909,-0.144 -226.47038,-0.4352 -213.8637,-2.1118 z" style="opacity:1;fill:#000000;fill-opacity:0;fill-rule:evenodd;stroke:none;stroke-width:2.2218;stroke-miterlimit:4;stroke-dasharray:none"></path>
    <path id="path2292" d="M 1.1966605,792.76692 C 1.3504794,596.92164 1.6583286,565.09493 3.2723657,578.17206 4.3146709,586.61695 8.1911198,607.01173 11.886697,623.49379 43.016,762.32876 127.91708,879.5779 250.34172,952.80226 c 29.39694,17.58284 58.20542,30.93364 92.85659,43.0328 28.46333,9.93854 74.03572,21.13604 100.16838,24.61214 12.60664,1.6769 -16.88465,1.9674 -213.86375,2.107 l -228.4868841,0.1619 z" style="opacity:1;fill:#000000;fill-opacity:0;fill-rule:evenodd;stroke:none;stroke-width:2.2218;stroke-miterlimit:4;stroke-dasharray:none"></path>
    <path id="path2294" d="m 449.118,837.15605 c -3.95642,-4.64452 -4.36842,-5.9588 -3.48483,-11.11651 2.28018,-13.30993 2.61694,-16.8166 1.61501,-16.81661 -2.07327,-3e-5 -6.07271,8.57533 -6.07276,13.02082 -7e-5,5.87191 -2.54591,5.6517 -7.80198,-0.67488 l -4.14614,-4.99059 2.43967,-7.34488 c 2.45582,-7.39352 3.1767,-7.69916 8.14906,-3.45514 3.03204,2.58791 5.40704,-0.003 25.30912,-27.60166 l 15.53353,-21.54127 10e-4,-20.13456 c 0.002,-22.09704 -4.61078,-51.57439 -8.06979,-51.57443 -0.99539,-10e-6 -4.02883,0.91791 -6.74096,2.03983 l -4.93113,2.03985 -22.86914,-14.78389 -22.86914,-14.78388 -5.28546,-11.75013 c -2.90701,-6.46256 -5.28305,-13.43064 -5.2801,-15.48463 0.007,-5.31493 -8.03737,-12.52361 -16.26748,-14.57643 -10.55753,-2.63332 -17.11319,-10.58431 -24.69073,-29.94595 -3.86553,-9.87696 -9.04077,-19.84109 -13.4083,-25.81564 l -7.11292,-9.73009 -12.02994,0.69715 c -6.61647,0.38344 -17.23347,1.61949 -23.59333,2.74679 -8.69369,1.54098 -13.09118,1.66491 -17.71964,0.4994 -5.89565,-1.48461 -6.26741,-1.91735 -8.78182,-10.22221 -1.97942,-6.53785 -3.19665,-8.5127 -4.94617,-8.02479 -1.27634,0.35594 -5.28181,1.07229 -8.90105,1.59189 -10.23911,1.47 -10.58209,1.6714 -17.40305,10.21924 l -6.43124,8.05945 -31.94344,-3.5e-4 -31.94343,-3.6e-4 -8.95712,18.64443 -8.95712,18.64443 -2.02632,21.56589 -2.02633,21.5659 7.39606,16.45438 c 6.54231,14.55502 8.69126,17.76259 18.61654,27.78746 6.17127,6.23319 12.01964,11.33308 12.99638,11.33309 3.81559,5e-5 3.28126,-3.24728 -2.39057,-14.52829 l -5.89684,-11.72858 2.9e-4,-26.0934 2.9e-4,-26.09341 7.69318,-11.05238 c 6.39896,-9.19304 13.73781,-16.37695 26.97944,-26.4099 0.97357,-0.73765 8.10741,-1.88408 15.85299,-2.54762 12.41513,-1.06356 15.78249,-0.79487 28.43476,2.26887 8.36277,2.02503 21.27462,6.74737 30.94103,11.31627 14.71377,6.95457 18.49584,9.58659 33.45543,23.28246 15.69536,14.36949 17.45422,16.54431 25.3355,31.32704 7.28533,13.66494 8.88157,18.13485 11.41906,31.97648 2.5832,14.09108 2.8264,19.49861 1.95677,43.50934 -0.54618,15.08013 -0.49495,27.41843 0.1139,27.41843 0.6088,10e-6 2.18031,-0.97139 3.49226,-2.15866 2.14492,-1.94108 3.33357,-1.20193 11.79259,7.33315 8.16612,8.23955 9.16762,9.8266 7.591,12.02942 -0.99893,1.39568 -2.18568,3.52465 -2.63723,4.73106 -0.45154,1.2064 -2.08395,4.99013 -3.62757,8.40828 -2.71594,6.01411 -3.02548,6.2148 -9.58505,6.21473 -5.52032,-6e-5 -6.47478,-0.366 -5.14226,-1.97156 1.24837,-1.50416 0.94419,-2.5978 -1.2832,-4.61361 -2.85915,-2.58751 -2.91949,-2.54676 -2.91954,1.97148 l -5e-5,4.61359 -8.08029,-9e-5 -8.08029,-9e-5 2.43421,-4.7525 c 1.33882,-2.61388 5.30404,-9.82947 8.81163,-16.03465 3.50758,-6.20518 6.37742,-12.01786 6.37743,-12.91707 5e-5,-4.23184 -4.09136,0.84737 -13.06217,16.21583 l -9.78142,16.75717 -7.5885,0.44192 c -7.06432,0.41139 -9.77706,-1.11037 -6.06689,-3.40332 1.57226,-0.97169 5.27625,-6.59127 12.2648,-18.60777 3.27347,-5.62861 3.59879,-6.94597 1.71527,-6.94599 -1.32021,-1e-5 -6.5305,6.31724 -12.06066,14.62303 l -9.73632,14.62305 -7.17487,-8e-5 c -5.33008,-6e-5 -6.90243,-0.47006 -6.11533,-1.82796 0.58273,-1.00534 7.2021,-10.82102 14.7097,-21.81261 7.50761,-10.99159 13.65018,-20.36862 13.65019,-20.83785 0,-0.46923 -0.82254,-0.83285 -1.82789,-0.80808 -1.00534,0.0249 -9.06647,10.19271 -17.91362,22.59541 l -16.08573,22.55035 -7.67716,0.0703 c -4.22244,0.0386 -7.65973,-0.42333 -7.63843,-1.02653 0.0213,-0.60321 11.57902,-15.90256 25.68385,-33.99856 14.10481,-18.09601 26.34188,-34.21791 27.19349,-35.82645 3.62117,-6.83973 -12.45026,10.84216 -34.69286,38.16931 -13.15939,16.16753 -25.43966,30.31987 -27.28952,31.4496 -2.20225,1.34496 -5.72573,1.79815 -10.20622,1.31274 l -6.84285,-0.7414 21.93279,-24.85913 c 12.06304,-13.67252 28.24926,-32.42654 35.96938,-41.6756 7.72012,-9.24907 14.4742,-17.33158 15.00906,-17.96114 2.2024,-2.59233 5.84221,1.17313 9.53648,9.86566 3.26991,7.69407 9.76015,15.40744 12.96426,15.40747 0.37703,10e-6 1.49254,-3.60604 2.47892,-8.01343 1.56279,-6.98287 1.36838,-10.60307 -1.51167,-28.1496 -3.09205,-18.83821 -3.8442,-21.14925 -11.66855,-35.85288 -7.98313,-15.00202 -9.11072,-16.35705 -24.79668,-29.79857 -19.35222,-16.58318 -34.8214,-25.38978 -53.57093,-30.49793 -28.58986,-7.78908 -44.02556,-4.25981 -59.38035,13.57693 -8.04052,9.34019 -8.27594,9.86662 -10.09867,22.58221 -2.98364,20.81423 -0.53858,38.00647 7.764,54.59203 l 6.52995,13.04448 -3.66357,5.48364 c -3.43969,5.14854 -4.12223,5.48364 -11.16901,5.48356 l -7.50544,-8e-5 -14.9003,-14.98891 C 163.49325,676.921 161.33283,673.97766 155.35656,661.05699 l -6.64241,-14.36085 2.4e-4,-21.40683 c 2.1e-4,-18.78717 0.48067,-23.11411 3.92614,-35.35793 3.24098,-11.51712 5.77035,-16.72294 14.49797,-29.83882 l 10.57206,-15.88774 18.03902,-11.53016 c 25.63078,-16.38266 40.51763,-21.80244 76.63405,-27.89973 10.80151,-1.82355 19.63911,-3.78473 19.63912,-4.35816 1e-5,-0.57343 -3.45469,-3.13643 -7.6771,-5.69554 -7.93325,-4.80819 -10.20421,-7.40896 -32.76709,-37.52602 -13.06477,-17.43893 -13.58625,-18.44516 -20.84177,-40.21534 l -7.44172,-22.32889 4.1e-4,-36.97216 c 3.3e-4,-30.06826 0.56921,-40.71741 3.04649,-57.02887 2.93053,-19.29595 3.45205,-20.89867 13.74932,-42.25446 5.88679,-12.20877 11.45198,-25.69858 12.36709,-29.97734 1.28049,-5.98717 3.136,-9.29569 8.05345,-14.35993 3.93509,-4.05256 8.02863,-10.51251 10.6563,-16.81652 3.73235,-8.95426 5.46449,-11.15181 13.83129,-17.54764 6.50459,-4.97231 11.70927,-10.64862 16.26812,-17.74231 5.85315,-9.10766 8.05733,-11.18452 17.37589,-16.37226 5.86982,-3.26778 15.60083,-9.90732 21.62449,-14.75453 6.02364,-4.84721 12.93313,-9.24296 15.35442,-9.76835 2.42128,-0.52538 16.4257,-4.16682 31.12094,-8.0921 25.13018,-6.71258 28.14447,-7.19309 50.70245,-8.0825 l 23.98382,-0.94563 4.48494,3.77391 c 3.19566,2.68902 6.90643,4.03941 12.90835,4.69747 10.52026,1.15346 13.80491,2.49965 21.51526,8.81784 3.57617,2.93048 10.35859,6.33728 16.22237,8.14849 8.02176,2.47777 11.17117,4.35584 15.44314,9.20916 2.95149,3.35315 8.57364,7.5989 12.49365,9.43498 5.97642,2.7993 8.14944,5.03615 13.45751,13.85285 3.48162,5.78297 10.82358,14.79182 16.31548,20.01967 9.95312,9.47457 10.01152,9.57673 18.14469,31.74506 l 8.15944,22.2399 -2.6e-4,22.78 c -2.1e-4,19.13103 -0.60726,25.52373 -3.78969,39.90859 -4.38888,19.83803 -8.2797,27.6746 -22.82222,45.96683 -12.5397,15.77297 -30.30293,28.66477 -55.30754,40.13983 l -17.22531,7.90502 -8.1898,-4.01677 c -7.76867,-3.81022 -8.1898,-4.29796 -8.18974,-9.48494 4e-5,-4.16102 2.09747,-8.79727 8.77411,-19.39479 l 8.77405,-13.9266 3.1e-4,-27.55444 3e-4,-27.55442 -8.54844,-10.14206 c -8.14821,-9.66725 -9.2766,-10.43667 -24.10133,-16.43419 l -15.55289,-6.29212 -9.37605,2.81278 c -10.87886,3.26359 -30.16011,17.60552 -30.16017,22.43394 -1e-5,1.55585 -2.63225,7.62473 -5.84941,13.4864 -5.68325,10.35489 -5.84939,11.05819 -5.84954,24.76104 -1.4e-4,13.0607 0.43762,15.2023 5.92089,28.96604 5.42927,13.62816 7.00815,16.02093 19.00979,28.80887 8.05105,8.57851 13.08873,15.15017 13.08871,17.07423 -4e-5,3.78569 22.45009,19.70035 27.94812,19.81215 8.56686,0.17418 22.63141,9.92496 49.73474,34.48046 27.20119,24.64416 27.24472,24.69354 36.92301,41.88569 8.30681,14.75585 9.68972,18.2413 9.68965,24.42134 -5e-5,4.57075 1.87289,12.38325 5.11787,21.34797 3.98335,11.00451 5.11793,16.36966 5.11784,24.20082 -6e-5,5.53397 0.44073,10.06178 0.97955,10.06178 0.53881,10e-6 5.30966,-4.14868 10.6019,-9.2193 13.21358,-12.66029 57.75121,-40.21204 86.51432,-53.51927 30.37404,-14.0525 35.73642,-18.7344 46.16086,-40.30292 l 7.79859,-16.13559 0.0133,-15.2847 c 0.0133,-14.95423 -0.0797,-15.38106 -4.30295,-19.74131 l -4.31655,-4.45662 -20.21384,1.28348 -20.21383,1.28347 -13.07774,8.95238 c -10.10762,6.91917 -14.08465,10.66945 -17.51134,16.51298 -3.17019,5.4061 -6.19402,8.41664 -10.61113,10.56451 l -6.1775,3.00388 -7.0132,-4.35975 -7.01322,-4.35977 1.83968,-24.65855 c 1.75856,-23.57156 2.12924,-25.42171 8.40856,-41.9708 6.37533,-16.80209 6.92527,-17.67106 18.66324,-29.48934 13.35832,-13.44946 27.88827,-23.7708 33.46376,-23.77073 1.98952,2e-5 10.98426,-2.96107 19.98829,-6.5802 l 16.37098,-6.58024 25.62548,2.8e-4 25.62547,2.8e-4 21.55078,10.81836 c 20.07545,10.07777 22.3521,11.65446 33.25644,23.03184 10.70651,11.17099 12.66661,14.21062 22.9634,35.61068 11.20721,23.2922 11.27108,23.49273 14.23527,44.69047 l 2.97752,21.29328 -5.98992,27.67279 c -4.22052,19.49832 -7.39248,30.48687 -10.73797,37.19926 -2.61143,5.23958 -5.95032,12.81669 -7.41974,16.83805 -1.53038,4.1881 -7.05988,12.62139 -12.9438,19.74112 -16.06766,19.44241 -58.07288,62.87895 -60.80693,62.87891 -1.35501,-10e-6 -7.34938,4.16596 -13.32082,9.25772 -5.97144,5.09176 -16.68212,12.80187 -23.80153,17.13356 l -12.94436,7.87582 5.63266,2.37187 c 3.09798,1.30453 11.88407,3.88654 19.52465,5.7378 7.64058,1.85128 23.10453,6.24999 34.36432,9.77493 11.2598,3.52495 33.96219,9.02207 50.44977,12.21584 35.55281,6.88685 47.88305,6.87342 72.23741,-0.0786 13.09869,-3.73912 15.18997,-4.8374 21.98084,-11.54376 8.40145,-8.2969 12.85882,-9.29983 21.98645,-4.94704 4.931,2.3515 5.16769,2.81056 5.16761,10.02267 -7e-5,5.88319 -1.44084,10.64133 -6.50097,21.4694 -7.72868,16.53843 -11.80118,20.53551 -37.51146,36.8168 -17.62612,11.16191 -17.97246,11.30304 -40.62319,16.55336 l -22.8455,5.29548 -55.56799,-1.73739 c -30.5624,-0.95556 -69.38688,-1.72464 -86.27663,-1.70906 -36.90573,0.0341 -52.39245,2.88287 -67.05206,12.33445 -8.56253,5.52057 -9.15514,7.48363 -2.53636,8.40195 2.65375,0.36821 4.0987,2.0611 5.83307,6.83398 2.19935,6.05247 2.17207,6.44207 -0.59246,8.4635 -5.0814,3.71551 -8.617,1.98216 -10.07119,-4.93749 -0.71836,-3.41817 -1.83181,-6.21486 -2.47433,-6.21487 -2.73255,-3e-5 -2.88604,3.51108 -0.44971,10.28655 l 2.60268,7.23806 -4.1643,4.34651 c -2.29037,2.39059 -4.67134,4.03314 -5.29103,3.65013 -0.61971,-0.383 -2.23658,-4.03794 -3.59309,-8.12211 -1.73408,-5.22105 -2.92559,-6.96647 -4.01321,-5.87887 -1.08761,1.08758 -0.74668,4.1898 1.14833,10.44886 l 2.69521,8.90201 -4.48793,4.48783 c -5.38292,5.38272 -7.72299,4.43792 -7.72291,-3.1182 4e-5,-3.85164 -0.75202,-5.89512 -2.4027,-6.52857 -3.67033,-1.40848 -3.79819,-0.43917 -1.24297,9.42219 l 2.36743,9.13662 -4.76596,4.91712 c -2.62129,2.7044 -5.29493,4.91711 -5.94143,4.9171 -0.64651,-10e-6 -1.17542,-2.93805 -1.17538,-6.52899 5e-5,-5.03236 -0.67033,-6.88777 -2.92455,-8.09422 -3.5045,-1.8756 -3.58782,-1.20017 -1.34723,10.92105 1.56277,8.45437 1.53585,8.57515 -2.9003,13.0112 -4.37467,4.37457 -4.52769,4.41151 -6.64912,1.60556 -1.48105,-1.9589 -2.18617,-6.52603 -2.21781,-14.36469 l -0.0464,-11.49262 10.14088,-16.29127 c 9.74338,-15.65267 10.8468,-16.83536 28.14992,-30.17234 25.56924,-19.70836 33.44911,-23.42042 61.87869,-29.14988 l 23.39711,-4.71526 54.83682,3.50345 c 54.29091,3.46858 55.16434,3.47862 87.73895,1.00957 19.05054,-1.44397 36.59665,-3.54567 41.67782,-4.99224 6.19278,-1.76303 14.58555,-6.4711 28.51534,-15.99615 18.90999,-12.93048 20.00026,-13.95412 25.94007,-24.35492 4.59928,-8.05346 6.20419,-12.46198 6.21504,-17.07196 0.0204,-8.69863 -3.01138,-8.1778 -13.83813,2.37727 -9.72683,9.48272 -13.70539,10.95818 -47.56482,17.63962 -14.84519,2.92938 -15.57845,2.94444 -22.11215,0.45394 -6.26018,-2.38624 -9.43667,-2.44886 -43.13832,-0.85054 -36.18651,1.71617 -36.57937,1.70263 -73.66952,-2.53582 -37.08189,-4.2375 -37.5002,-4.25191 -75.30925,-2.59589 l -38.02024,1.66527 -8.55358,7.31946 c -7.58871,6.49381 -10.64031,7.9528 -27.05299,12.93425 -14.39137,4.36795 -20.94348,5.61645 -29.50565,5.62225 l -11.00622,0.007 -35.90281,36.19192 c -44.25419,44.61055 -48.61868,50.8305 -51.14123,72.88251 -2.0315,17.75947 -3.41775,19.57702 -9.49244,12.44583 z m -72.33537,-65.85799 c 1.9358,-3.61697 1.90627,-4.48306 -0.15288,-4.48308 -1.70148,-2e-5 -5.51438,4.23264 -5.59846,6.21478 -0.0974,2.29538 4.30556,0.96969 5.75134,-1.7317 z m 4.43848,-7.40766 c 0,-0.80428 -0.98705,-1.46233 -2.19346,-1.46234 -1.20641,-2e-5 -2.19348,0.65801 -2.19349,1.46229 -10e-6,0.80427 0.98704,1.46232 2.19346,1.46234 1.20641,10e-6 2.19348,-0.65802 2.19349,-1.46229 z m -29.24619,-12.31041 c 0,-0.33636 0.39944,-1.65244 0.88764,-2.92463 1.30304,-3.39552 -2.74603,-2.89382 -4.9352,0.61151 -1.59885,2.5601 -1.46043,2.92461 1.11054,2.92464 1.61536,2e-5 2.93702,-0.27518 2.93702,-0.61152 z m 8.51229,-14.17769 c 2.67103,-4.08384 4.54477,-7.73682 4.16386,-8.11774 -1.42269,-1.42273 -6.70874,3.18299 -9.64107,8.40026 -3.53087,6.28215 -3.68617,7.20449 -1.20711,7.16888 1.00534,-0.0146 4.01329,-3.36756 6.68432,-7.4514 z m -15.82366,-4.22095 c 1.20197,-2.24585 1.1121,-2.92462 -0.38722,-2.92463 -2.14936,-3e-5 -5.46205,2.83794 -5.46207,4.67935 -2e-5,2.37543 4.33482,1.07502 5.84929,-1.75472 z m 183.27024,-18.73042 c 5.76782,-4.67287 12.79009,-9.37889 15.60506,-10.45783 2.81497,-1.07894 14.3308,-8.57346 25.59072,-16.6545 15.46099,-11.09607 23.0016,-15.52217 30.80371,-18.08079 5.68213,-1.86339 18.44159,-7.65439 28.35437,-12.86887 l 18.02322,-9.48089 25.76561,2.9e-4 25.76562,2.9e-4 35.81289,-24.86307 c 22.19209,-15.40685 39.01087,-28.21328 44.2213,-33.6717 l 8.40841,-8.80862 2e-4,-17.42786 c 1.8e-4,-16.63347 0.22213,-17.91487 4.86909,-28.11166 3.78247,-8.29984 6.00182,-11.29388 9.94612,-13.41797 3.57263,-1.92394 6.42913,-5.3903 9.63935,-11.69738 l 4.56215,-8.9632 -2.0466,-13.16087 c -1.12563,-7.23848 -2.06071,-21.7528 -2.07796,-32.25405 l -0.0314,-19.09319 -10.11208,-4.89204 c -9.45562,-4.57446 -10.78821,-5.85068 -20.52691,-19.65843 -7.806,-11.06753 -14.09204,-17.87993 -25.09485,-27.19622 -13.66886,-11.57365 -15.60409,-12.7058 -28.09471,-16.436 -12.66045,-3.7809 -55.12143,-11.34893 -63.67454,-11.34902 -2.86983,-3e-5 -6.15528,2.27955 -12.11828,8.40818 -7.55038,7.76008 -8.69294,9.88228 -14.82205,27.53061 -5.80811,16.72407 -6.77289,21.26326 -7.69239,36.19224 -1.02445,16.63281 -0.97376,17.06985 1.97967,17.06989 2.18151,2e-5 4.79887,-2.88305 9.33838,-10.28642 5.91659,-9.64921 7.22506,-10.81548 21.12171,-18.82635 l 14.81438,-8.53992 18.08784,-1.61119 c 17.08166,-1.52154 18.64518,-1.43172 28.10681,1.61474 9.77072,3.14599 10.12399,3.43395 14.25745,11.62253 3.67664,7.28358 4.23847,10.02972 4.23836,20.71618 -1.3e-4,11.6905 -0.36672,13.10457 -7.17917,27.69325 -4.84375,10.37273 -10.77843,19.89481 -18.24405,29.27225 l -11.06502,13.89855 -21.60448,8.33714 c -11.88247,4.58541 -22.64917,9.51808 -23.92603,10.96146 -1.27685,1.44338 -9.68961,6.31945 -18.69502,10.83572 -9.60851,4.8187 -22.24349,12.7995 -30.58081,19.31616 -21.05151,16.45435 -49.81227,45.00303 -61.12389,60.67316 -5.4359,7.5304 -11.79821,15.99477 -14.13846,18.8097 -2.46845,2.96912 -7.57126,14.02087 -12.1532,26.32155 l -7.89821,21.2035 -0.027,17.91337 c -0.0178,11.85425 0.50662,17.91338 1.55037,17.91339 0.86751,10e-6 6.2964,-3.82324 12.0642,-8.49611 z m -23.87707,-46.20375 c 8e-5,-7.29286 13.36815,-33.68217 24.90361,-49.16109 l 11.46982,-15.39086 -1.5476,-11.66188 c -1.04353,-7.86338 -3.39481,-15.77341 -7.21872,-24.28478 -5.14161,-11.44429 -5.6711,-13.77523 -5.67098,-24.96455 l 1.4e-4,-12.34167 -13.52629,-12.07328 c -14.36457,-12.82151 -37.39877,-25.98881 -51.77866,-29.59881 -4.22072,-1.0596 -12.43641,-5.48345 -20.34656,-10.95587 -7.29705,-5.04826 -19.55748,-11.88778 -27.24543,-15.19893 -11.79517,-5.08012 -14.6947,-7.01818 -18.56689,-12.41023 -2.52383,-3.51447 -7.94142,-10.05832 -12.03907,-14.5419 l -7.45028,-8.15197 1.04283,-9.73674 c 0.57357,-5.3552 1.33821,-10.50647 1.69924,-11.44726 0.36102,-0.94079 -2.30091,-5.26793 -5.91542,-9.61587 -6.29568,-7.57317 -6.47655,-8.05112 -4.30462,-11.37471 1.93144,-2.95556 2.0257,-5.09325 0.63643,-14.43473 l -1.63077,-10.96536 12.44731,-13.55981 12.44729,-13.55983 1.7e-4,-14.81455 c 1.5e-4,-14.0202 0.2746,-15.35951 5.11838,-24.97771 2.81502,-5.58973 5.12017,-11.66017 5.12254,-13.48986 0.003,-2.34977 3.69672,-6.54744 12.5777,-14.29395 10.86453,-9.47666 14.25705,-11.53513 24.96139,-15.1457 l 12.38802,-4.17846 9.0333,3.22767 c 21.08935,7.53538 29.2994,12.52586 39.66991,24.11336 8.9069,9.95211 10.1824,12.17398 12.83339,22.35534 2.75356,10.57525 2.82712,12.62632 1.13968,31.77734 l -1.80384,20.4724 -8.60835,15.48208 c -4.7346,8.51513 -8.60836,15.91806 -8.60837,16.45096 -8e-5,7.66224 57.08998,-25.22706 65.23851,-37.58358 2.19338,-3.32607 7.49729,-10.39978 11.78648,-15.71934 7.09997,-8.80557 8.19806,-11.19972 12.25888,-26.72789 l 4.46037,-17.05597 -3.36764,-4.26532 c -2.07931,-2.63358 -4.78756,-4.29628 -7.07933,-4.34625 -5.13736,-0.11208 -12.66244,-9.50788 -21.14978,-26.40764 -3.78142,-7.52946 -10.26306,-17.59167 -14.40365,-22.36046 -8.3675,-9.63703 -14.34841,-12.88524 -43.70669,-23.73696 -13.00066,-4.80545 -20.76838,-8.83995 -31.99836,-16.61973 -13.32991,-9.23456 -16.22496,-10.59614 -28.62044,-13.46062 -13.33742,-3.08216 -14.83224,-3.12982 -45.50419,-1.45094 -26.10824,1.42907 -78.19464,6.97124 -90.21413,9.59907 -1.61276,0.3526 -7.04165,3.69474 -12.0642,7.42697 -7.06203,5.24776 -9.13192,7.63569 -9.13195,10.53513 -3e-5,2.37008 -3.76554,8.7588 -10.23641,17.36751 -7.43797,9.89533 -10.23637,14.83255 -10.23641,18.06007 -3e-5,2.61097 -4.57604,13.5783 -11.10193,26.60797 -10.37554,20.71593 -11.29219,23.32181 -14.01046,39.82969 -1.96887,11.95675 -3.14816,27.82114 -3.65014,49.1033 l -0.74156,31.43979 5.2777,19.74133 c 7.10083,26.56078 11.71075,37.36767 19.3588,45.38224 3.48011,3.64689 6.32747,7.47386 6.32746,8.50437 -6e-5,4.99998 17.41132,23.82258 31.43942,33.98765 8.04267,5.82789 18.95698,14.43321 24.25402,19.12293 8.90517,7.88418 10.16249,8.52679 16.68357,8.52686 4.53307,5e-5 16.24224,2.93049 32.776,8.20281 24.41866,7.78665 26.17984,8.60256 34.72195,16.08586 4.9492,4.33572 10.22075,7.88315 11.71457,7.88317 1.56922,10e-6 12.99772,10.34237 27.06642,24.49409 23.33408,23.47176 24.6693,25.13491 31.99142,39.84847 4.20258,8.44492 9.7936,22.66219 12.4245,31.59393 2.6309,8.93174 6.5058,19.63851 8.61089,23.79282 3.38952,6.68907 4.15752,7.37667 6.71221,6.00948 1.60751,-0.86029 2.88478,-3.05619 2.8848,-4.9596 z" style="opacity:1;fill:#000000;fill-opacity:0;fill-rule:evenodd;stroke:none;stroke-width:2.2218;stroke-miterlimit:4;stroke-dasharray:none"></path>
  </g>
</svg>
